<?xml version="1.0" ?><svg style="enable-background:new 0 0 512 512;" version="1.1" viewBox="0 0 512 512" xml:space="preserve" xmlns="http://www.w3.org/2000/svg" xmlns:xlink="http://www.w3.org/1999/xlink"><style type="text/css">
	.st0{fill:#723A15;}
	.st1{fill:#F48024;}
	.st2{opacity:0.45;}
	.st3{fill:#231F20;}
	.st4{fill:#FFFFFF;}
</style><g id="Edges"/><g id="Background_Bottom"><g><path class="st0" d="M492.3,443.1c0,34.2-27.7,61.9-61.9,61.9H80.7c-34.2,0-61.9-27.7-61.9-61.9V93.4c0-34.2,27.7-61.9,61.9-61.9    h349.7c34.2,0,61.9,27.7,61.9,61.9V443.1z"/></g></g><g id="Background"><path class="st1" d="M492.3,418.4c0,34.2-27.7,61.9-61.9,61.9H80.7c-34.2,0-61.9-27.7-61.9-61.9V68.6c0-34.2,27.7-61.9,61.9-61.9   h349.7c34.2,0,61.9,27.7,61.9,61.9V418.4z"/></g><g class="st2" id="Shadow"><g><path class="st3" d="M327.1,193.6c6.1,8.2,12.1,16.3,18.2,24.5c0.2,0.2,0.3,0.5,0.5,0.7l0,0L411,284h0l81.4,81.4l0-58L448,263    l0.2-0.2L294.6,109.2c0-0.1-0.1-0.1-0.1-0.2c-0.7-0.9-1.1-0.8-1.9-0.2c-5.7,4.3-11.4,8.5-17.2,12.7c-1,0.7-0.9,1.2-0.3,2.1    C292.5,146.9,309.8,170.3,327.1,193.6z"/><path class="st3" d="M350.5,232.7L350.5,232.7l-9.1-9.1l0,0c-0.2-0.2-0.5-0.4-0.7-0.6c-8.3-6.9-16.7-13.9-25-20.8    c-21.9-18.2-43.9-36.5-65.8-54.7c-0.8-0.7-1.2-0.6-1.9,0.2c-4.4,5.4-8.9,10.7-13.3,16c-1,1.2-1.3,1.3-0.7,1.8l0,0l77,77    c-32.1-15.1-64.3-30.1-96.4-45.2c-0.3-0.2-0.7-0.3-1-0.4c-0.7,0-0.7,0.5-0.9,0.9c-3,6.6-5.9,13.2-9,19.8c-0.4,0.8-0.3,1.2,0,1.5    l43.8,43.8c-8.3-1.7-16.5-3.5-24.8-5.2c-9.6-2-19.2-4-28.8-6.1c-1.2-0.3-1.5,0.1-1.7,1.2c-1.4,7-2.8,13.9-4.4,20.9    c-0.2,0.7-0.1,1.1,0.1,1.3l0,0l31,31c-10.9,0-21.7,0-32.6,0c-0.7,0-1.1,0.1-1.3,0.6l-24.3-24.3c-0.2-0.2-0.7-0.2-1.6-0.2    c-6.8,0-13.7,0-20.5,0c-1.8,0-1.8,0-1.8,1.7c0,31,0,62,0,92.9c0,1,0,1.5,0.3,1.7L239,480.3h21.2h54.5h16.2v0l99.7,0    c34.2,0,61.9-27.7,61.9-61.9v-43.8L350.5,232.7z"/></g></g><g id="Symbol"><g><path class="st4" d="M245.7,378.7c-35.6,0-71.2,0-106.8,0c-1.9,0-1.9,0-1.9-1.9c0-31,0-62,0-92.9c0-1.7,0-1.7,1.8-1.7    c6.8,0,13.7,0,20.5,0c1.9,0,1.9,0,1.9,1.8c0,23,0,45.9,0,68.9c0,1.8,0,1.8,1.7,1.8c55.2,0,110.4,0,165.6,0c1.3,0,1.7-0.3,1.7-1.7    c0-23,0-46,0-69c0-1.8,0-1.8,1.7-1.8c7,0,14.1,0,21.1,0c1.1,0,1.4,0.3,1.4,1.4c0,31.3,0,62.5,0,93.8c0,1.4-0.6,1.5-1.7,1.5    C317,378.7,281.3,378.7,245.7,378.7z"/><g><path class="st4" d="M304.7,299.6c-5.3-1.1-11.1-2.3-16.8-3.5c-21.4-4.5-42.9-9-64.3-13.4c-11.4-2.4-22.9-4.8-34.3-7.1     c-1.1-0.2-1.6-0.5-1.3-1.8c1.6-6.9,3-13.9,4.4-20.9c0.2-1.1,0.5-1.5,1.7-1.2c9.6,2.1,19.2,4,28.8,6.1     c21.1,4.4,42.2,8.8,63.3,13.2c7.8,1.6,15.7,3.3,23.5,4.9c1,0.2,1.1,0.5,0.9,1.4c-1.5,7.1-3,14.2-4.5,21.3     C306,299,306.2,300,304.7,299.6z"/><path class="st4" d="M245.4,306.1c19.6,0,39.3,0,58.9,0c1.2,0,1.5,0.2,1.5,1.5c-0.1,7.1-0.1,14.2,0,21.2c0,1.1-0.2,1.5-1.4,1.5     c-39.3,0-78.7,0-118,0c-1,0-1.4-0.2-1.4-1.3c0.1-7.2,0.1-14.3,0-21.5c0-1.1,0.4-1.3,1.4-1.3C206.2,306.1,225.8,306.1,245.4,306.1     z"/><path class="st4" d="M213.7,196.9c0.3,0.1,0.6,0.3,1,0.4c34.1,16,68.2,32,102.3,48c1.6,0.7,3.2,1.5,4.8,2.2     c0.7,0.3,0.8,0.6,0.5,1.3c-3.1,6.7-6.2,13.4-9.2,20.1c-0.5,1-1,0.6-1.6,0.3c-7.8-3.6-15.6-7.3-23.4-10.9     c-27.8-13-55.7-25.9-83.5-38.9c-1-0.5-1.3-0.8-0.8-1.9c3-6.6,6-13.2,9-19.8C213,197.5,213,196.9,213.7,196.9z"/><path class="st4" d="M365.3,204.7c0,0.4-0.3,0.6-0.6,0.8c-5.9,4.4-11.9,8.8-17.8,13.2c-1,0.7-1.2,0-1.6-0.5     c-6.1-8.2-12.1-16.3-18.2-24.5c-17.3-23.4-34.7-46.8-52.1-70.1c-0.7-0.9-0.7-1.3,0.3-2.1c5.8-4.2,11.5-8.4,17.2-12.7     c0.8-0.6,1.2-0.7,1.9,0.2c23.4,31.6,46.8,63.2,70.2,94.7C364.9,204,365.1,204.4,365.3,204.7z"/><path class="st4" d="M341.6,224.1c-0.2,0.2-0.4,0.5-0.6,0.7c-4.6,5.5-9.2,11-13.7,16.5c-0.7,0.8-1.1,0.9-1.9,0.2     c-13.6-11.4-27.3-22.8-41-34.1c-16.5-13.7-32.9-27.4-49.4-41.1c-1.8-1.5-1.6-1-0.3-2.6c4.4-5.4,8.9-10.7,13.3-16     c0.7-0.8,1-0.9,1.9-0.2c21.9,18.3,43.8,36.5,65.8,54.7c8.3,6.9,16.7,13.9,25,20.8C341,223.3,341.5,223.5,341.6,224.1z"/></g></g></g></svg>